<svg width="339" height="297" viewBox="0 0 339 297" fill="none" xmlns="http://www.w3.org/2000/svg">
<g clip-path="url(#clip0)">
<path d="M101.756 241.659C32.8 191.637 -9.27478 125.794 7.7492 94.6161C24.7732 63.438 94.473 78.5966 163.429 128.724C232.385 178.852 274.46 244.563 257.436 275.741C240.412 306.919 170.713 291.655 101.756 241.659Z" fill="#E7247C" stroke="#E7C930" stroke-width="3" stroke-miterlimit="10"/>
<path d="M128.402 186.806C93.9441 161.822 71.8358 130.938 79.0148 117.794C86.1938 104.649 119.91 114.292 154.368 139.224C188.826 164.156 210.934 195.093 203.776 208.237C196.617 221.381 162.88 211.712 128.402 186.806Z" fill="#E7C930"/>
<path d="M173.599 202.827L176.892 251.651L192.577 257.916L174.837 200.566L173.599 202.827Z" fill="#E7C930"/>
<path d="M151.326 176.08L134.906 234.275L121.707 225.728L150.571 172.756L151.326 176.08Z" fill="#E7C930"/>
<path d="M165.612 188.032L146.479 238.861L163.109 243.497L167.952 186.198L165.612 188.032Z" fill="#E7C930"/>
<path d="M182.682 196.649L209.466 256.255L230.677 251.477L183.075 192.672L182.682 196.649Z" fill="#E7C930"/>
<path d="M196.22 203.775L222.508 226.324L231.873 217.722L195.521 201.742L196.22 203.775Z" fill="#E7C930"/>
<path d="M130.723 166.26L98.3682 208.99L110.82 216.954L133.328 165.482L130.723 166.26Z" fill="#E7C930"/>
<path d="M143.397 144.234L74.6365 187.165L87.4343 201.376L146.85 144.513L143.397 144.234Z" fill="#E7C930"/>
<path d="M109.26 144.551L50.9444 152.189L42.7237 129.381L111.936 141.928L109.26 144.551Z" fill="#E7C930"/>
<path d="M88.9975 133.099L53.9797 112.275L56.3079 94.8395L91.2681 132.714L88.9975 133.099Z" fill="#E7C930"/>
<path d="M97.0592 118.14L89.5369 106.378L82.7925 106.505L96.9103 118.825L97.0592 118.14Z" fill="#E7C930"/>
<path d="M201.767 196.974L211.629 202.291L217.058 198.626L201.812 196.316L201.767 196.974Z" fill="#E7C930"/>
<path d="M128.175 145.508L71.6083 180.325L56.4642 164.864L130.106 142.011L128.175 145.508Z" fill="#E7C930"/>
</g>
<defs>
<clipPath id="clip0">
<rect width="337.022" height="294.852" transform="matrix(0.999989 0.00460488 0.00460488 -0.999989 0 294.849)" fill="white"/>
</clipPath>
</defs>
</svg>
